%TF.GenerationSoftware,KiCad,Pcbnew,6.0.0-rc1-unknown-fbdb2bd91f~144~ubuntu20.04.1*%
%TF.CreationDate,2021-12-12T18:35:44-05:00*%
%TF.ProjectId,amplificador_200w_estereo,616d706c-6966-4696-9361-646f725f3230,v0.0.1*%
%TF.SameCoordinates,Original*%
%TF.FileFunction,Soldermask,Bot*%
%TF.FilePolarity,Negative*%
%FSLAX46Y46*%
G04 Gerber Fmt 4.6, Leading zero omitted, Abs format (unit mm)*
G04 Created by KiCad (PCBNEW 6.0.0-rc1-unknown-fbdb2bd91f~144~ubuntu20.04.1) date 2021-12-12 18:35:44*
%MOMM*%
%LPD*%
G01*
G04 APERTURE LIST*
G04 Aperture macros list*
%AMRoundRect*
0 Rectangle with rounded corners*
0 $1 Rounding radius*
0 $2 $3 $4 $5 $6 $7 $8 $9 X,Y pos of 4 corners*
0 Add a 4 corners polygon primitive as box body*
4,1,4,$2,$3,$4,$5,$6,$7,$8,$9,$2,$3,0*
0 Add four circle primitives for the rounded corners*
1,1,$1+$1,$2,$3*
1,1,$1+$1,$4,$5*
1,1,$1+$1,$6,$7*
1,1,$1+$1,$8,$9*
0 Add four rect primitives between the rounded corners*
20,1,$1+$1,$2,$3,$4,$5,0*
20,1,$1+$1,$4,$5,$6,$7,0*
20,1,$1+$1,$6,$7,$8,$9,0*
20,1,$1+$1,$8,$9,$2,$3,0*%
G04 Aperture macros list end*
%ADD10C,5.500000*%
%ADD11C,1.600000*%
%ADD12C,1.550000*%
%ADD13R,1.550000X1.550000*%
%ADD14O,2.500000X4.200000*%
%ADD15C,5.000000*%
%ADD16C,3.000000*%
%ADD17R,1.800000X1.800000*%
%ADD18O,1.800000X1.800000*%
%ADD19O,2.400000X2.400000*%
%ADD20C,2.400000*%
%ADD21R,1.600000X2.400000*%
%ADD22O,1.600000X2.400000*%
%ADD23O,1.600000X1.600000*%
%ADD24R,1.600000X1.600000*%
%ADD25O,2.500000X4.500000*%
%ADD26R,2.500000X4.500000*%
%ADD27RoundRect,0.275000X-0.625000X0.275000X-0.625000X-0.275000X0.625000X-0.275000X0.625000X0.275000X0*%
%ADD28R,1.800000X1.100000*%
%ADD29RoundRect,0.275000X0.625000X-0.275000X0.625000X0.275000X-0.625000X0.275000X-0.625000X-0.275000X0*%
%ADD30O,2.200000X2.200000*%
%ADD31R,2.200000X2.200000*%
%ADD32R,1.700000X1.700000*%
%ADD33O,1.700000X1.700000*%
%ADD34R,2.600000X2.600000*%
%ADD35C,2.600000*%
%ADD36R,2.000000X1.905000*%
%ADD37O,2.000000X1.905000*%
%ADD38C,2.340000*%
%ADD39R,2.400000X1.600000*%
%ADD40O,2.400000X1.600000*%
%ADD41RoundRect,0.275000X0.275000X0.625000X-0.275000X0.625000X-0.275000X-0.625000X0.275000X-0.625000X0*%
%ADD42R,1.100000X1.800000*%
%ADD43RoundRect,0.275000X-0.275000X-0.625000X0.275000X-0.625000X0.275000X0.625000X-0.275000X0.625000X0*%
G04 APERTURE END LIST*
D10*
%TO.C,H3*%
X65540000Y-32350000D03*
%TD*%
%TO.C,H2*%
X11460000Y-89500000D03*
%TD*%
%TO.C,H1*%
X129700000Y-89500000D03*
%TD*%
D11*
%TO.C,C24*%
X102800000Y-77920000D03*
X97800000Y-77920000D03*
%TD*%
%TO.C,C23*%
X79500000Y-93400000D03*
X74500000Y-93400000D03*
%TD*%
%TO.C,C22*%
X70800000Y-79400000D03*
X65800000Y-79400000D03*
%TD*%
%TO.C,C21*%
X89730000Y-92130000D03*
X94730000Y-92130000D03*
%TD*%
D12*
%TO.C,RV2*%
X33382500Y-31975000D03*
X35882500Y-26975000D03*
D13*
X38382500Y-31975000D03*
%TD*%
D12*
%TO.C,RV1*%
X97527500Y-24400000D03*
X102527500Y-26900000D03*
D13*
X97527500Y-29400000D03*
%TD*%
D11*
%TO.C,C20*%
X117800000Y-64200000D03*
X122800000Y-64200000D03*
%TD*%
%TO.C,C19*%
X117800000Y-78600000D03*
X122800000Y-78600000D03*
%TD*%
D14*
%TO.C,J2*%
X8350000Y-104500000D03*
X32650000Y-104500000D03*
D15*
X13500000Y-104500000D03*
D16*
X17500000Y-99750000D03*
D15*
X27500000Y-104600000D03*
D16*
X31500000Y-99750000D03*
%TD*%
D17*
%TO.C,Q16*%
X24600000Y-31800000D03*
D18*
X27140000Y-31800000D03*
X29680000Y-31800000D03*
%TD*%
D17*
%TO.C,Q15*%
X57982500Y-31575000D03*
D18*
X55442500Y-31575000D03*
X52902500Y-31575000D03*
%TD*%
D17*
%TO.C,Q7*%
X113500000Y-32000000D03*
D18*
X110960000Y-32000000D03*
X108420000Y-32000000D03*
%TD*%
D17*
%TO.C,Q6*%
X90122500Y-37050000D03*
D18*
X87582500Y-37050000D03*
X85042500Y-37050000D03*
%TD*%
D17*
%TO.C,Q14*%
X53025000Y-42557500D03*
D18*
X55565000Y-42557500D03*
X58105000Y-42557500D03*
%TD*%
D17*
%TO.C,Q5*%
X98042500Y-34540000D03*
D18*
X100582500Y-34540000D03*
X103122500Y-34540000D03*
%TD*%
D19*
%TO.C,R29*%
X65525000Y-24012500D03*
D20*
X55365000Y-24012500D03*
%TD*%
D19*
%TO.C,R13*%
X128087500Y-18755000D03*
D20*
X128087500Y-39075000D03*
%TD*%
D21*
%TO.C,U1*%
X71600000Y-84200000D03*
D22*
X69060000Y-84200000D03*
X66520000Y-84200000D03*
X63980000Y-84200000D03*
X63980000Y-91820000D03*
X66520000Y-91820000D03*
X69060000Y-91820000D03*
X71600000Y-91820000D03*
%TD*%
D23*
%TO.C,R2*%
X109900000Y-59660000D03*
D11*
X109900000Y-49500000D03*
%TD*%
%TO.C,C3*%
X72637500Y-56675000D03*
D24*
X72637500Y-60175000D03*
%TD*%
D25*
%TO.C,Q9*%
X121732500Y-13412500D03*
X116282500Y-13412500D03*
D26*
X110832500Y-13412500D03*
%TD*%
D23*
%TO.C,R1*%
X101052500Y-65805000D03*
D11*
X101052500Y-55645000D03*
%TD*%
%TO.C,R39*%
X78800000Y-90400000D03*
D23*
X78800000Y-80240000D03*
%TD*%
D11*
%TO.C,C4*%
X112400000Y-42800000D03*
X107400000Y-42800000D03*
%TD*%
D27*
%TO.C,Q4*%
X115400000Y-44940000D03*
X117470000Y-43670000D03*
D28*
X115400000Y-42400000D03*
%TD*%
D11*
%TO.C,R33*%
X104470000Y-92040000D03*
D23*
X114630000Y-92040000D03*
%TD*%
D11*
%TO.C,R34*%
X101520000Y-90960000D03*
D23*
X101520000Y-80800000D03*
%TD*%
D11*
%TO.C,C18*%
X59740000Y-87300000D03*
X59740000Y-92300000D03*
%TD*%
D29*
%TO.C,Q2*%
X100407500Y-50165000D03*
X98337500Y-51435000D03*
D28*
X100407500Y-52705000D03*
%TD*%
D30*
%TO.C,D3*%
X93262500Y-33395000D03*
D31*
X83102500Y-33395000D03*
%TD*%
D30*
%TO.C,D8*%
X42565000Y-37892500D03*
D31*
X42565000Y-27732500D03*
%TD*%
D32*
%TO.C,J5*%
X22275000Y-89375000D03*
D33*
X24815000Y-89375000D03*
X27355000Y-89375000D03*
%TD*%
D30*
%TO.C,D2*%
X88072500Y-46145000D03*
D31*
X98232500Y-46145000D03*
%TD*%
D11*
%TO.C,C12*%
X35782500Y-35975000D03*
X30782500Y-35975000D03*
%TD*%
D18*
%TO.C,D5*%
X54965000Y-68292500D03*
D17*
X54965000Y-58132500D03*
%TD*%
D19*
%TO.C,R14*%
X78822500Y-22195000D03*
D20*
X88982500Y-22195000D03*
%TD*%
D11*
%TO.C,C1*%
X104677500Y-64400000D03*
X104677500Y-59400000D03*
%TD*%
D23*
%TO.C,R16*%
X42182500Y-68335000D03*
D11*
X42182500Y-58175000D03*
%TD*%
D23*
%TO.C,R21*%
X51565000Y-68162500D03*
D11*
X51565000Y-58002500D03*
%TD*%
D23*
%TO.C,R9*%
X101502500Y-46395000D03*
D11*
X111662500Y-46395000D03*
%TD*%
D34*
%TO.C,J1*%
X10200000Y-47800000D03*
D35*
X10200000Y-52880000D03*
X10200000Y-57960000D03*
X10200000Y-63040000D03*
X10200000Y-68120000D03*
X10200000Y-73200000D03*
%TD*%
D23*
%TO.C,R18*%
X55195000Y-54812500D03*
D11*
X65355000Y-54812500D03*
%TD*%
D30*
%TO.C,D7*%
X48125000Y-42612500D03*
D31*
X37965000Y-42612500D03*
%TD*%
D27*
%TO.C,Q12*%
X29062500Y-48045000D03*
X31132500Y-46775000D03*
D28*
X29062500Y-45505000D03*
%TD*%
D23*
%TO.C,R23*%
X64155000Y-37262500D03*
D11*
X64155000Y-47422500D03*
%TD*%
%TO.C,R38*%
X42000000Y-91800000D03*
D23*
X52160000Y-91800000D03*
%TD*%
D25*
%TO.C,Q17*%
X59615000Y-13412500D03*
X54165000Y-13412500D03*
D26*
X48715000Y-13412500D03*
%TD*%
D23*
%TO.C,R19*%
X41595000Y-54812500D03*
D11*
X51755000Y-54812500D03*
%TD*%
D26*
%TO.C,Q18*%
X15665000Y-13412500D03*
D25*
X21115000Y-13412500D03*
X26565000Y-13412500D03*
%TD*%
D30*
%TO.C,D4*%
X83302500Y-29395000D03*
D31*
X93462500Y-29395000D03*
%TD*%
D11*
%TO.C,R36*%
X83000000Y-93000000D03*
D23*
X83000000Y-82840000D03*
%TD*%
%TO.C,R17*%
X29022500Y-57575000D03*
D11*
X39182500Y-57575000D03*
%TD*%
%TO.C,C6*%
X100682500Y-37795000D03*
X95682500Y-37795000D03*
%TD*%
D32*
%TO.C,J6*%
X123225000Y-69850000D03*
D33*
X123225000Y-72390000D03*
%TD*%
D36*
%TO.C,U3*%
X117800000Y-73752500D03*
D37*
X117800000Y-71212500D03*
X117800000Y-68672500D03*
%TD*%
D35*
%TO.C,J4*%
X35320000Y-16717500D03*
D34*
X40400000Y-16717500D03*
%TD*%
D38*
%TO.C,RV3*%
X67200000Y-102600000D03*
X72200000Y-102600000D03*
X77200000Y-102600000D03*
%TD*%
D30*
%TO.C,D6*%
X60715000Y-47612500D03*
D31*
X50555000Y-47612500D03*
%TD*%
D11*
%TO.C,R35*%
X86400000Y-82800000D03*
D23*
X86400000Y-92960000D03*
%TD*%
D18*
%TO.C,D1*%
X91912500Y-57875000D03*
D17*
X81752500Y-57875000D03*
%TD*%
D19*
%TO.C,R30*%
X30360000Y-24200000D03*
D20*
X20200000Y-24200000D03*
%TD*%
D19*
%TO.C,R27*%
X47165000Y-18692500D03*
D20*
X47165000Y-39012500D03*
%TD*%
D26*
%TO.C,Q8*%
X77982500Y-13412500D03*
D25*
X83432500Y-13412500D03*
X88882500Y-13412500D03*
%TD*%
D23*
%TO.C,R6*%
X78552500Y-62880000D03*
D11*
X78552500Y-52720000D03*
%TD*%
D23*
%TO.C,R22*%
X51915000Y-51017500D03*
D11*
X41755000Y-51017500D03*
%TD*%
D39*
%TO.C,U2*%
X97800000Y-88800000D03*
D40*
X97800000Y-86260000D03*
X97800000Y-83720000D03*
X97800000Y-81180000D03*
X90180000Y-81180000D03*
X90180000Y-83720000D03*
X90180000Y-86260000D03*
X90180000Y-88800000D03*
%TD*%
D11*
%TO.C,R40*%
X75000000Y-90400000D03*
D23*
X75000000Y-80240000D03*
%TD*%
%TO.C,R26*%
X65315000Y-51412500D03*
D11*
X55155000Y-51412500D03*
%TD*%
D41*
%TO.C,Q10*%
X45625000Y-64012500D03*
X46895000Y-66082500D03*
D42*
X48165000Y-64012500D03*
%TD*%
D19*
%TO.C,R28*%
X12200000Y-19680000D03*
D20*
X12200000Y-40000000D03*
%TD*%
D28*
%TO.C,Q13*%
X32400000Y-42400000D03*
D29*
X30330000Y-41130000D03*
X32400000Y-39860000D03*
%TD*%
D11*
%TO.C,C11*%
X34582500Y-45975000D03*
X34582500Y-50975000D03*
%TD*%
D38*
%TO.C,RV6*%
X45000000Y-102750000D03*
X50000000Y-102750000D03*
X55000000Y-102750000D03*
X45000000Y-97750000D03*
X50000000Y-97750000D03*
X55000000Y-97750000D03*
%TD*%
D23*
%TO.C,R11*%
X94302500Y-42795000D03*
D11*
X104462500Y-42795000D03*
%TD*%
%TO.C,C17*%
X55550000Y-92260000D03*
X55550000Y-87260000D03*
%TD*%
%TO.C,C8*%
X32582500Y-61375000D03*
X37582500Y-61375000D03*
%TD*%
D27*
%TO.C,Q1*%
X104532500Y-55295000D03*
X106602500Y-54025000D03*
D28*
X104532500Y-52755000D03*
%TD*%
D43*
%TO.C,Q11*%
X48035000Y-60332500D03*
X46765000Y-58262500D03*
D42*
X45495000Y-60332500D03*
%TD*%
D23*
%TO.C,R7*%
X73957500Y-52775000D03*
D11*
X73957500Y-42615000D03*
%TD*%
%TO.C,C13*%
X58465000Y-36812500D03*
X53465000Y-36812500D03*
%TD*%
D23*
%TO.C,R24*%
X47715000Y-47817500D03*
D11*
X37555000Y-47817500D03*
%TD*%
D20*
%TO.C,R12*%
X73982500Y-39155000D03*
D19*
X73982500Y-18835000D03*
%TD*%
D11*
%TO.C,R31*%
X35800000Y-84720000D03*
D23*
X35800000Y-94880000D03*
%TD*%
%TO.C,R5*%
X95027500Y-61480000D03*
D11*
X95027500Y-51320000D03*
%TD*%
D38*
%TO.C,RV5*%
X88100000Y-102500000D03*
X93100000Y-102500000D03*
X98100000Y-102500000D03*
%TD*%
%TO.C,RV4*%
X109000000Y-102500000D03*
X114000000Y-102500000D03*
X119000000Y-102500000D03*
%TD*%
D23*
%TO.C,R4*%
X91887500Y-54600000D03*
D11*
X81727500Y-54600000D03*
%TD*%
%TO.C,C10*%
X34582500Y-65527651D03*
D24*
X34582500Y-69027651D03*
%TD*%
D11*
%TO.C,C16*%
X104600000Y-89200000D03*
X104600000Y-84200000D03*
%TD*%
%TO.C,R37*%
X41970000Y-88410000D03*
D23*
X52130000Y-88410000D03*
%TD*%
D11*
%TO.C,C7*%
X109000000Y-36500000D03*
X114000000Y-36500000D03*
%TD*%
D23*
%TO.C,R20*%
X25022500Y-53775000D03*
D11*
X35182500Y-53775000D03*
%TD*%
D19*
%TO.C,R15*%
X108602500Y-24675000D03*
D20*
X118762500Y-24675000D03*
%TD*%
D23*
%TO.C,R8*%
X91462500Y-42795000D03*
D11*
X81302500Y-42795000D03*
%TD*%
D23*
%TO.C,R25*%
X24800000Y-39320000D03*
D11*
X24800000Y-49480000D03*
%TD*%
D41*
%TO.C,Q3*%
X117930000Y-36080000D03*
X119200000Y-38150000D03*
D42*
X120470000Y-36080000D03*
%TD*%
D11*
%TO.C,C5*%
X120600000Y-47000000D03*
X120600000Y-42000000D03*
%TD*%
%TO.C,C9*%
X61182500Y-62675000D03*
D24*
X61182500Y-59175000D03*
%TD*%
D11*
%TO.C,C14*%
X27200000Y-36000000D03*
X22200000Y-36000000D03*
%TD*%
D23*
%TO.C,R3*%
X91837500Y-50575000D03*
D11*
X81677500Y-50575000D03*
%TD*%
%TO.C,C15*%
X109200000Y-84200000D03*
X109200000Y-89200000D03*
%TD*%
D23*
%TO.C,R10*%
X123800000Y-41080000D03*
D11*
X123800000Y-30920000D03*
%TD*%
D34*
%TO.C,J3*%
X102400000Y-15800000D03*
D35*
X97320000Y-15800000D03*
%TD*%
D11*
%TO.C,R32*%
X32400000Y-84710000D03*
D23*
X32400000Y-94870000D03*
%TD*%
D11*
%TO.C,C2*%
X88474849Y-64075000D03*
D24*
X84974849Y-64075000D03*
%TD*%
M02*
