M48
; DRILL file {KiCad 6.0.0-rc1-unknown-fbdb2bd91f~144~ubuntu20.04.1} date dom 12 dic 2021 18:37:48
; FORMAT={-:-/ absolute / metric / decimal}
; #@! TF.CreationDate,2021-12-12T18:37:48-05:00
; #@! TF.GenerationSoftware,Kicad,Pcbnew,6.0.0-rc1-unknown-fbdb2bd91f~144~ubuntu20.04.1
; #@! TF.FileFunction,MixedPlating,1,2
FMAT,2
METRIC
; #@! TA.AperFunction,Plated,PTH,ComponentDrill
T1C0.750
; #@! TA.AperFunction,Plated,PTH,ViaDrill
T2C0.800
; #@! TA.AperFunction,Plated,PTH,ComponentDrill
T3C0.800
; #@! TA.AperFunction,Plated,PTH,ComponentDrill
T4C0.900
; #@! TA.AperFunction,Plated,PTH,ComponentDrill
T5C1.000
; #@! TA.AperFunction,Plated,PTH,ComponentDrill
T6C1.100
; #@! TA.AperFunction,Plated,PTH,ComponentDrill
T7C1.200
; #@! TA.AperFunction,Plated,PTH,ComponentDrill
T8C1.300
; #@! TA.AperFunction,Plated,PTH,ComponentDrill
T9C1.400
; #@! TA.AperFunction,Plated,PTH,ComponentDrill
T10C1.500
; #@! TA.AperFunction,Plated,PTH,ComponentDrill
T11C2.500
; #@! TA.AperFunction,Plated,PTH,ComponentDrill
T12C3.200
; #@! TA.AperFunction,NonPlated,NPTH,ComponentDrill
T13C2.500
%
G90
G05
T1
X29.462Y-45.505
X29.462Y-48.045
X30.73Y-41.13
X30.732Y-46.775
X32.0Y-39.86
X32.0Y-42.4
X45.495Y-59.932
X45.625Y-64.412
X46.765Y-58.662
X46.895Y-65.682
X48.035Y-59.932
X48.165Y-64.412
X98.737Y-51.435
X100.007Y-50.165
X100.007Y-52.705
X104.932Y-52.755
X104.932Y-55.295
X106.203Y-54.025
X115.8Y-42.4
X115.8Y-44.94
X117.07Y-43.67
X117.93Y-36.48
X119.2Y-37.75
X120.47Y-36.48
T2
X38.182Y-54.975
X38.2Y-50.6
X38.63Y-71.34
X38.63Y-85.14
X51.66Y-85.15
X58.8Y-85.179
X65.85Y-57.88
X65.92Y-69.46
X67.8Y-56.0
X67.89Y-69.44
X81.2Y-96.8
X89.8Y-96.8
X95.66Y-75.19
X96.35Y-94.73
X101.72Y-75.15
X107.51Y-79.96
X107.6Y-64.47
X111.39Y-94.74
T3
X22.2Y-36.0
X24.8Y-39.32
X24.8Y-49.48
X25.022Y-53.775
X27.2Y-36.0
X29.022Y-57.575
X30.782Y-35.975
X32.4Y-84.71
X32.4Y-94.87
X32.582Y-61.375
X34.582Y-45.975
X34.582Y-50.975
X34.582Y-65.528
X34.582Y-69.028
X35.182Y-53.775
X35.782Y-35.975
X35.8Y-84.72
X35.8Y-94.88
X37.555Y-47.817
X37.582Y-61.375
X39.182Y-57.575
X41.595Y-54.812
X41.755Y-51.017
X41.97Y-88.41
X42.0Y-91.8
X42.182Y-58.175
X42.182Y-68.335
X47.715Y-47.817
X51.565Y-58.002
X51.565Y-68.162
X51.755Y-54.812
X51.915Y-51.017
X52.13Y-88.41
X52.16Y-91.8
X53.465Y-36.812
X55.155Y-51.412
X55.195Y-54.812
X55.55Y-87.26
X55.55Y-92.26
X58.465Y-36.812
X59.74Y-87.3
X59.74Y-92.3
X61.182Y-59.175
X61.182Y-62.675
X63.98Y-84.2
X63.98Y-91.82
X64.155Y-37.262
X64.155Y-47.422
X65.315Y-51.412
X65.355Y-54.812
X65.8Y-79.4
X66.52Y-84.2
X66.52Y-91.82
X69.06Y-84.2
X69.06Y-91.82
X70.8Y-79.4
X71.6Y-84.2
X71.6Y-91.82
X72.638Y-56.675
X72.638Y-60.175
X73.957Y-42.615
X73.957Y-52.775
X74.5Y-93.4
X75.0Y-80.24
X75.0Y-90.4
X78.552Y-52.72
X78.552Y-62.88
X78.8Y-80.24
X78.8Y-90.4
X79.5Y-93.4
X81.302Y-42.795
X81.677Y-50.575
X81.727Y-54.6
X83.0Y-82.84
X83.0Y-93.0
X84.975Y-64.075
X86.4Y-82.8
X86.4Y-92.96
X88.475Y-64.075
X89.73Y-92.13
X90.18Y-81.18
X90.18Y-83.72
X90.18Y-86.26
X90.18Y-88.8
X91.462Y-42.795
X91.837Y-50.575
X91.888Y-54.6
X94.302Y-42.795
X94.73Y-92.13
X95.027Y-51.32
X95.027Y-61.48
X95.682Y-37.795
X97.8Y-77.92
X97.8Y-81.18
X97.8Y-83.72
X97.8Y-86.26
X97.8Y-88.8
X100.682Y-37.795
X101.052Y-55.645
X101.052Y-65.805
X101.502Y-46.395
X101.52Y-80.8
X101.52Y-90.96
X102.8Y-77.92
X104.462Y-42.795
X104.47Y-92.04
X104.6Y-84.2
X104.6Y-89.2
X104.677Y-59.4
X104.677Y-64.4
X107.4Y-42.8
X109.0Y-36.5
X109.2Y-84.2
X109.2Y-89.2
X109.9Y-49.5
X109.9Y-59.66
X111.662Y-46.395
X112.4Y-42.8
X114.0Y-36.5
X114.63Y-92.04
X117.8Y-64.2
X117.8Y-78.6
X120.6Y-42.0
X120.6Y-47.0
X122.8Y-64.2
X122.8Y-78.6
X123.8Y-30.92
X123.8Y-41.08
T4
X54.965Y-58.133
X54.965Y-68.293
X81.752Y-57.875
X91.912Y-57.875
T5
X22.275Y-89.375
X24.6Y-31.8
X24.815Y-89.375
X27.14Y-31.8
X27.355Y-89.375
X29.68Y-31.8
X33.383Y-31.975
X35.883Y-26.975
X38.383Y-31.975
X52.902Y-31.575
X53.025Y-42.557
X55.442Y-31.575
X55.565Y-42.557
X57.982Y-31.575
X58.105Y-42.557
X85.042Y-37.05
X87.582Y-37.05
X90.123Y-37.05
X97.527Y-24.4
X97.527Y-29.4
X98.042Y-34.54
X100.582Y-34.54
X102.527Y-26.9
X103.123Y-34.54
X108.42Y-32.0
X110.96Y-32.0
X113.5Y-32.0
X123.225Y-69.85
X123.225Y-72.39
T6
X37.965Y-42.612
X42.565Y-27.732
X42.565Y-37.892
X48.125Y-42.612
X50.555Y-47.612
X60.715Y-47.612
X83.102Y-33.395
X83.302Y-29.395
X88.072Y-46.145
X93.263Y-33.395
X93.462Y-29.395
X98.233Y-46.145
X117.8Y-68.672
X117.8Y-71.212
X117.8Y-73.752
T7
X12.2Y-19.68
X12.2Y-40.0
X20.2Y-24.2
X30.36Y-24.2
X47.165Y-18.692
X47.165Y-39.012
X55.365Y-24.012
X65.525Y-24.012
X73.983Y-18.835
X73.983Y-39.155
X78.822Y-22.195
X88.983Y-22.195
X108.602Y-24.675
X118.762Y-24.675
X128.088Y-18.755
X128.088Y-39.075
T8
X10.2Y-47.8
X10.2Y-52.88
X10.2Y-57.96
X10.2Y-63.04
X10.2Y-68.12
X10.2Y-73.2
X35.32Y-16.717
X40.4Y-16.717
X45.0Y-97.75
X45.0Y-102.75
X50.0Y-97.75
X50.0Y-102.75
X55.0Y-97.75
X55.0Y-102.75
X67.2Y-102.6
X72.2Y-102.6
X77.2Y-102.6
X88.1Y-102.5
X93.1Y-102.5
X97.32Y-15.8
X98.1Y-102.5
X102.4Y-15.8
X109.0Y-102.5
X114.0Y-102.5
X119.0Y-102.5
T9
X17.5Y-99.75
X31.5Y-99.75
T10
X15.665Y-13.412
X21.115Y-13.412
X26.565Y-13.412
X48.715Y-13.412
X54.165Y-13.412
X59.615Y-13.412
X77.983Y-13.412
X83.432Y-13.412
X88.882Y-13.412
X110.832Y-13.412
X116.282Y-13.412
X121.732Y-13.412
T11
X13.5Y-104.5
X27.5Y-104.6
T12
X11.46Y-89.5
X65.54Y-32.35
X129.7Y-89.5
T13
G00X8.35Y-105.35
M15
G01X8.35Y-103.65
M16
G05
G00X32.65Y-105.35
M15
G01X32.65Y-103.65
M16
G05
T0
M30
